<svg width="128" height="128" viewBox="0 0 128 128" fill="none" xmlns="http://www.w3.org/2000/svg">
<rect width="128" height="128" rx="64" fill="white"/>
<path d="M32.5655 63.9649C31.6347 63.5338 30.7226 63.2011 29.829 62.9668C28.9448 62.7231 28.1676 62.6013 27.4974 62.6013C26.79 62.6013 26.2874 62.6716 25.9896 62.8121C25.6917 62.9433 25.5428 63.1776 25.5428 63.515C25.5428 63.8149 25.7615 64.0539 26.199 64.2319C26.6365 64.4006 27.2787 64.5974 28.1257 64.8224C28.9727 65.0473 29.7313 65.2956 30.4015 65.5674C31.0716 65.8392 31.6394 66.1766 32.1048 66.5796C32.5795 66.9825 32.9378 67.4652 33.1798 68.0275C33.4311 68.5898 33.5568 69.2786 33.5568 70.0939C33.5568 70.8249 33.4172 71.495 33.138 72.1042C32.8587 72.7039 32.4352 73.2194 31.8674 73.6505C31.2997 74.0816 30.583 74.4143 29.7173 74.6486C28.8517 74.8829 27.8325 75 26.6597 75C25.6173 75 24.5701 74.9203 23.5183 74.761C22.4666 74.6111 21.4055 74.3393 20.3351 73.9457V69.6019C21.2938 70.0236 22.2571 70.361 23.2252 70.6141C24.1932 70.8671 25.1146 70.9936 25.9896 70.9936C27.5626 70.9936 28.3491 70.6656 28.3491 70.0096C28.3491 69.8971 28.3119 69.794 28.2374 69.7003C28.1629 69.6066 28.0233 69.5176 27.8185 69.4332C27.6231 69.3395 27.3439 69.2458 26.9808 69.1521C26.6272 69.049 26.1711 68.9272 25.6126 68.7866C24.8401 68.5991 24.1094 68.3602 23.4206 68.0696C22.7411 67.7698 22.1454 67.4089 21.6335 66.9872C21.1309 66.5561 20.7307 66.0547 20.4328 65.4831C20.1443 64.9114 20 64.2601 20 63.5291C20 62.8731 20.135 62.2686 20.4049 61.7157C20.6841 61.1627 21.0983 60.6895 21.6475 60.2958C22.2059 59.9022 22.8947 59.5977 23.7138 59.3821C24.5422 59.1572 25.5009 59.0447 26.5899 59.0447C27.2228 59.0447 27.8279 59.0728 28.4049 59.1291C28.9913 59.1853 29.5451 59.2556 30.0664 59.3399C30.5876 59.4149 31.0716 59.4993 31.5184 59.593C31.9745 59.6773 32.3933 59.757 32.775 59.8319L32.5655 63.9649Z" fill="#1D3557"/>
<path d="M42.1874 75C41.3217 75 40.4933 74.8922 39.7022 74.6767C38.911 74.4705 38.2129 74.1191 37.6079 73.6224C37.0122 73.1163 36.5329 72.4509 36.1699 71.6262C35.8162 70.7921 35.6393 69.7565 35.6393 68.5195V62.9105H32.861V61.9968L39.4369 54.7994H41.6708V59.4243H46.1385C46.0268 59.9866 45.9244 60.5536 45.8314 61.1252C45.7476 61.6969 45.7011 62.292 45.6917 62.9105H41.6708V68.4633C41.6708 68.8006 41.6941 69.1286 41.7406 69.4473C41.7964 69.7565 41.9035 70.033 42.0617 70.2767C42.2199 70.511 42.448 70.7031 42.7458 70.853C43.0437 70.9936 43.4393 71.0639 43.9326 71.0639C44.249 71.0639 44.5981 71.0358 44.9797 70.9796C45.3613 70.9139 45.7941 70.7968 46.2781 70.6281L46.6132 74.269C46.0268 74.4846 45.352 74.6579 44.5888 74.7891C43.8348 74.9297 43.0344 75 42.1874 75Z" fill="#1D3557"/>
<path d="M61.0798 73.9879C60.2048 74.2784 59.2601 74.5174 58.2455 74.7048C57.231 74.9016 56.1746 75 55.0762 75C53.8755 75 52.7307 74.8407 51.6417 74.522C50.5527 74.2034 49.594 73.7067 48.7656 73.0319C47.9372 72.3572 47.2763 71.5044 46.783 70.4735C46.299 69.4332 46.057 68.1962 46.057 66.7623C46.057 65.947 46.1826 65.1925 46.434 64.499C46.6853 63.7962 47.025 63.1589 47.4532 62.5872C47.8906 62.0155 48.3979 61.5095 48.975 61.069C49.5614 60.6285 50.185 60.2584 50.8458 59.9585C51.516 59.6586 52.2048 59.4337 52.9122 59.2837C53.6196 59.1244 54.313 59.0447 54.9925 59.0447C56.0629 59.0447 57.0076 59.1666 57.8267 59.4102C58.6458 59.6445 59.3253 59.9632 59.8651 60.3661C60.4143 60.7691 60.8285 61.2377 61.1077 61.7719C61.3869 62.3061 61.5265 62.8731 61.5265 63.4728C61.5265 64.2038 61.4009 64.8271 61.1496 65.3425C60.9076 65.8579 60.5771 66.2937 60.1583 66.6498C59.7488 66.9966 59.2694 67.2731 58.7202 67.4792C58.1804 67.676 57.608 67.8307 57.003 67.9431C56.3979 68.0462 55.779 68.1118 55.146 68.1399C54.5224 68.1681 53.9267 68.1821 53.359 68.1821C53.1635 68.1821 52.9727 68.1821 52.7865 68.1821C52.6097 68.1727 52.4328 68.1681 52.256 68.1681C52.3304 68.7022 52.4747 69.1521 52.6888 69.5176C52.9122 69.8831 53.1868 70.183 53.5125 70.4173C53.8476 70.6422 54.2292 70.8062 54.6574 70.9093C55.0949 71.003 55.5602 71.0498 56.0536 71.0498C56.4259 71.0498 56.8215 71.0217 57.2403 70.9655C57.6685 70.9093 58.0966 70.8343 58.5248 70.7406C58.9622 70.6375 59.3951 70.525 59.8232 70.4032C60.2607 70.272 60.6795 70.1361 61.0798 69.9955V73.9879ZM52.1303 66.0032C52.3537 65.9938 52.6376 65.9798 52.982 65.961C53.3357 65.9423 53.708 65.9095 54.0989 65.8626C54.4898 65.8158 54.8808 65.7502 55.2717 65.6658C55.6626 65.5815 56.0163 65.4737 56.3328 65.3425C56.6493 65.2113 56.9052 65.0473 57.1007 64.8505C57.2962 64.6537 57.3939 64.4147 57.3939 64.1335C57.3939 63.6556 57.2031 63.276 56.8215 62.9949C56.4491 62.7044 55.9279 62.5591 55.2577 62.5591C54.9506 62.5591 54.6202 62.606 54.2665 62.6997C53.9128 62.784 53.5823 62.9527 53.2752 63.2058C52.968 63.4588 52.7074 63.8102 52.4933 64.2601C52.2792 64.7099 52.1582 65.2909 52.1303 66.0032Z" fill="#1D3557"/>
<path d="M62.9529 53H68.9843V74.5923H62.9529V53Z" fill="#1D3557"/>
<path d="M71.0529 53H77.0843V74.5923H71.0529V53Z" fill="#1D3557"/>
<path d="M82.7829 75C82.1872 75 81.6148 74.9157 81.0657 74.747C80.5258 74.5783 80.0465 74.3206 79.6276 73.9738C79.2088 73.6271 78.8737 73.1913 78.6224 72.6665C78.3804 72.1323 78.2594 71.5044 78.2594 70.7827C78.2594 70.0892 78.3711 69.4895 78.5944 68.9834C78.8178 68.4679 79.1157 68.0275 79.488 67.662C79.8696 67.2965 80.3117 66.9966 80.8143 66.7623C81.3263 66.5186 81.8661 66.3312 82.4339 66.2C83.0017 66.0594 83.5834 65.9657 84.1791 65.9188C84.7841 65.8626 85.3705 65.8345 85.9383 65.8345C86.3292 65.8345 86.7062 65.8439 87.0692 65.8626C87.4322 65.8814 87.7719 65.9048 88.0884 65.9329C88.0698 65.3425 87.9581 64.8552 87.7533 64.4709C87.5485 64.0773 87.2786 63.7681 86.9435 63.5431C86.6085 63.3088 86.2175 63.1448 85.7707 63.0511C85.324 62.9574 84.8539 62.9105 84.3606 62.9105C83.9045 62.9105 83.4345 62.9433 82.9505 63.0089C82.4758 63.0652 82.0104 63.1401 81.5543 63.2339C81.0982 63.3182 80.6608 63.4119 80.2419 63.515C79.8324 63.6181 79.4694 63.7118 79.1529 63.7962V59.8601C79.609 59.757 80.0976 59.6586 80.6189 59.5649C81.1494 59.4618 81.6986 59.3727 82.2664 59.2978C82.8341 59.2228 83.4112 59.1619 83.9976 59.115C84.5933 59.0682 85.1797 59.0447 85.7568 59.0447C86.4735 59.0447 87.1762 59.0916 87.865 59.1853C88.5631 59.2696 89.2193 59.4149 89.8336 59.6211C90.4572 59.8273 91.0297 60.1037 91.5509 60.4505C92.0814 60.7972 92.5329 61.2283 92.9052 61.7438C93.2868 62.2498 93.5846 62.8496 93.7987 63.5431C94.0128 64.2366 94.1198 65.0379 94.1198 65.947V74.5923H88.3676V72.076C88.1442 72.5352 87.8324 72.9476 87.4322 73.3131C87.032 73.6692 86.5805 73.9738 86.0779 74.2268C85.5753 74.4799 85.0401 74.672 84.4723 74.8032C83.9045 74.9344 83.3414 75 82.7829 75ZM85.1425 71.6965C85.4031 71.6965 85.7009 71.6262 86.036 71.4856C86.3804 71.3357 86.7015 71.1108 86.9994 70.8109C87.3065 70.511 87.5625 70.1314 87.7673 69.6722C87.9813 69.213 88.0884 68.6647 88.0884 68.0275H87.6277C87.1809 68.0275 86.7201 68.0743 86.2454 68.1681C85.7801 68.2618 85.3519 68.4023 84.961 68.5898C84.57 68.7772 84.2489 69.0068 83.9976 69.2786C83.7463 69.5504 83.6206 69.8643 83.6206 70.2204C83.6206 70.5016 83.6672 70.7359 83.7603 70.9233C83.8533 71.1108 83.9697 71.2654 84.1093 71.3872C84.2582 71.4997 84.4211 71.5793 84.598 71.6262C84.7841 71.6731 84.9656 71.6965 85.1425 71.6965Z" fill="#1D3557"/>
<path d="M95.8812 59.4243H101.62C101.601 59.6679 101.587 59.9397 101.578 60.2396C101.568 60.5301 101.564 60.8394 101.564 61.1674C101.564 61.486 101.564 61.8094 101.564 62.1374C101.564 62.4654 101.564 62.7793 101.564 63.0792C101.75 62.62 101.992 62.1514 102.29 61.6735C102.588 61.1862 102.937 60.7504 103.337 60.3661C103.746 59.9819 104.207 59.6679 104.719 59.4243C105.24 59.1712 105.822 59.0447 106.464 59.0447C106.585 59.0447 106.716 59.0541 106.855 59.0728C107.004 59.0822 107.148 59.101 107.288 59.1291C107.428 59.1572 107.558 59.1947 107.679 59.2415C107.809 59.279 107.916 59.3259 108 59.3821L107.511 65.1738C107.092 65.0145 106.65 64.8973 106.185 64.8224C105.72 64.738 105.315 64.6958 104.97 64.6958C104.496 64.6958 104.077 64.7568 103.714 64.8786C103.36 64.9911 103.058 65.141 102.806 65.3284C102.555 65.5159 102.355 65.722 102.206 65.947C102.066 66.1719 101.969 66.3921 101.913 66.6077V74.5923H95.8812V59.4243Z" fill="#1D3557"/>
</svg>
